<?xml version="1.0" encoding="utf-8"?>
<svg viewBox="263.918 227.101 3414.199 2180.793" xmlns="http://www.w3.org/2000/svg">
  <defs>
    <clipPath clipPathUnits="userSpaceOnUse" id="clipPath248">
      <path d="m 22460,6939.8 h -12.4 c -69.6,280.1 -163.3,486.6 -163.3,486.6 0,0 -1774.9,621.6 -1883.3,903.5 -23.2,60.4 37.9,84.1 148.3,84.1 405,0 1473,-319.3 1473,-319.3 -85.1,577.1 -1131.7,1842.3 -1131.7,1842.3 0,0 -159,-48.1 -382.4,-107.3 3.2,85.4 5.2,170.6 5.8,255.1 100.6,8.1 163.4,11.6 163.4,11.6 -45.5,77 -101.8,150.4 -164.6,219.6 -7.8,417.9 -45.6,821.9 -106.5,1196.7 H 22460 c 352.5,0 640.9,-288.4 640.9,-640.8 V 7580.6 c 0,-352.5 -288.4,-640.8 -640.9,-640.8 m -2259.8,0 h -253 c 24.5,97.5 57.7,164.1 96.9,182.5 4.8,2.3 9.8,3.4 14.9,3.4 41.1,0 89.6,-72.4 141.2,-185.9" id="path246"/>
    </clipPath>
  </defs>
  <g id="g10" transform="matrix(1.333333, 0, 0, -1.333333, 0, 2666.666748)">
    <g id="g12" transform="scale(0.1)">
      <path d="m 26554.1,1993.8 c -1508.4,0 -23480.93,-5.3 -23493.63,33.6 l -2.15,5 c 0,0 -2.15,4.8 -2.15,7.2 -8.39,19.5 -3385.479,5490.6 1864.61,9299.3 2054.2,1490.2 -128.55,2474 1504.95,4133 1078.59,1095.4 2213.77,865.2 3380.39,635 863.88,-170.4 1744.98,-340.8 2633.18,27 368.8,152.6 738.9,398.2 1109.4,775.1 861,875 2045.5,1277.8 3255.5,1367.9 2332.5,172.6 4957.4,-798.5 6312.1,-2218 272.7,-285.8 1512.8,-1764.8 535.3,-3797.6 -617.3,-1283.5 1968.5,-2509.3 2887.3,-3974.9 2336.1,-3726.2 36.4,-6244 15.2,-6292.6" style="fill:#ebf3fa;fill-opacity:1;fill-rule:nonzero;stroke:none" id="path16"/>
      <path d="m 10853.1,9178.5 c 0,0 -35.2,-546.6 -224.4,-627.7 -14.2,-6 -29.3,-9.5 -45.3,-9.9 -144.7,-3.7 -298.6,144.5 -370.7,226.4 -15.4,17.5 -27,31.8 -34.1,41.2 -92.4,121.4 -135.5,252.9 201.5,496.4 194,140.2 174,855.7 473,1092.8 198.4,157.5 0,-1219.2 0,-1219.2" style="fill:#8c9df4;fill-opacity:1;fill-rule:nonzero;stroke:none" id="path18"/>
      <path d="m 9691.8,10270.6 c 0,0 -13.4,290.1 -89.92,345.4 -76.51,55.4 -146.21,161.9 -170.16,137.8 -23.95,-24.1 120.66,-186.2 53.4,-198.7 -31.95,-5.9 -241.47,353.7 -304.36,337.3 -62.89,-16.4 -48.64,-277.5 12.35,-382.8 60.98,-105.3 247.13,-304.5 247.13,-304.5 l 251.56,65.5" style="fill:#ffb27d;fill-opacity:1;fill-rule:nonzero;stroke:none" id="path20"/>
      <path d="m 10439.7,1993.6 h 1091.1 c 78.1,53 -21.1,571.3 -21.1,571.3 0,0 -297.8,112.9 -349.2,-116.8 -51.6,-229.6 -379.3,-302.6 -552.7,-330.6 -118.7,-19.3 -156.2,-84.5 -168.1,-123.9" style="fill:#1c4b8e;fill-opacity:1;fill-rule:nonzero;stroke:none" id="path22"/>
      <path d="m 12103.5,7365.6 c 0,0 -34.4,-636.5 -77.5,-1373.9 -30.9,-528.8 -66.2,-1109.7 -96.5,-1544.6 -4,-57.8 -8,-112.9 -11.7,-165.1 -1.1,-16.1 -2.4,-32.2 -3.6,-48.2 -78.1,-975.3 -339.3,-1829.8 -339.3,-1829.8 -306.7,-64.7 -445.3,53.6 -445.3,53.6 0,0 -211.3,2477 -289.6,3476 -57.6,735.4 -106.7,1806.1 -106.7,1806.1 l 1370.2,-374.1" style="fill:#ffa561;fill-opacity:1;fill-rule:nonzero;stroke:none" id="path24"/>
      <path d="m 12026,5991.7 c -30.9,-528.8 -66.2,-1109.7 -96.5,-1544.6 -200.5,473 -610.2,2316.7 -610.2,2316.7 l 706.7,-772.1" style="fill:#f4904d;fill-opacity:1;fill-rule:nonzero;stroke:none" id="path26"/>
      <path d="m 12057.8,1993.6 h 1091 c 78.2,53 -21.1,571.3 -21.1,571.3 0,0 -297.7,112.9 -349.2,-116.8 -51.5,-229.6 -379.2,-302.6 -552.6,-330.6 -118.7,-19.3 -156.2,-84.5 -168.1,-123.9" style="fill:#1c4b8e;fill-opacity:1;fill-rule:nonzero;stroke:none" id="path28"/>
      <path d="m 11029.6,7492.2 c 0,0 779.1,-1939.3 1028.2,-2674.5 177.4,-523.6 677.8,-2360.6 677.8,-2360.6 0,0 217.5,-66.2 400.4,61.8 0,0 186.1,1876.8 -189.9,2406 -199.5,280.7 -49.5,2918.5 -858.4,2941.1 -808.8,22.6 -1058.1,-373.8 -1058.1,-373.8" style="fill:#ffa561;fill-opacity:1;fill-rule:nonzero;stroke:none" id="path30"/>
      <path d="m 12630.2,8660 c -1.3,-196 -3.3,-382.6 -5.2,-544 -1.3,-109.3 -2.6,-207.1 -3.6,-288.5 -1.5,-123.9 -2.5,-210 -2,-240.9 2.1,-166.9 -104.5,-204.6 -214.6,-230 0,0 -101.5,-21.9 -229.7,-43.6 -125.6,-21.1 -277,-41.8 -384,-41.1 -547,4.4 -1004.9,165.4 -1004.9,165.4 -102.9,0 -149.8,159.2 -166.7,381.5 -11.4,150.5 35,1650.9 40.9,2025.7 4,268.6 151.5,516.9 192.7,553.2 382,337.8 1509.2,295.3 1712.1,62.3 50.2,-57.6 64.7,-613.1 66.5,-1221.7 0.5,-192.2 -0.2,-389.6 -1.5,-578.3" style="fill:#8c9df4;fill-opacity:1;fill-rule:nonzero;stroke:none" id="path32"/>
      <path d="m 11948.1,10593.7 c -143.9,-156 -627.2,-132.9 -612.9,3.2 2,16.8 5.1,116.5 6.7,131.9 1.2,12.4 2.5,24.6 3.4,36 3.3,33.5 6,63.2 8.2,88.8 6.4,74.7 8.5,115.1 8.5,115.1 h 0.5 c 13.8,3.9 324.6,92.2 479.2,128.7 51.9,12.3 86.3,18.8 85.7,14.2 -47.4,-347.2 67.9,-466.8 20.7,-517.9" style="fill:#ffb27d;fill-opacity:1;fill-rule:nonzero;stroke:none" id="path34"/>
      <path d="m 11858.1,10995 c 0,0 -129.8,-131.9 -504.6,-141.4 6.4,74.7 8.5,115.1 8.5,115.1 h 0.5 c 13.8,3.9 324.6,92.2 479.2,128.7 27.2,-11.1 -8.9,-83.7 16.4,-102.4" style="fill:#ed975d;fill-opacity:1;fill-rule:nonzero;stroke:none" id="path36"/>
      <path d="m 11267,10987.2 c 0,0 94.9,-34.1 215.9,-50.3 176.9,-23.9 409.5,-9.8 482.6,204.2 123.1,360.3 280.4,576.4 -81.9,723.5 -193.9,78.8 -318,83 -402.2,52.9 -73.3,-25.9 -116.4,-77.8 -149.1,-129 -70.3,-110.3 -211.9,-738.2 -65.3,-801.3" style="fill:#ffb27d;fill-opacity:1;fill-rule:nonzero;stroke:none" id="path38"/>
      <path d="m 11359.6,12067.3 c -129.4,-85 -87.2,-284.2 65.3,-311 91.4,-16 168,-19.2 212.4,-39 90.1,-40 167.5,-82.4 146.2,-222.2 -7.2,-47.5 -30.4,-105.4 92,-76.7 20,4.7 34.5,3.3 44.4,-2.7 50.8,-30.1 -14.1,-176 -33.7,-207.6 0,0 -28.1,-104.6 34.4,-155.5 7.5,-6 130.2,-59.7 426,392.9 46.5,71.1 90.9,231.1 19.1,385.2 -71.7,154.1 -271.8,349 -648.5,349 -98.1,0 -245.6,-38.8 -357.6,-112.4" style="fill:#233862;fill-opacity:1;fill-rule:nonzero;stroke:none" id="path40"/>
      <path d="m 11264.2,11219.8 c 0,0 -7.6,-46.6 100.9,-83.9 0,0 91,-31.2 107.7,16.6 0,0 -72.4,68.9 -208.6,67.3" style="fill:#ffffff;fill-opacity:1;fill-rule:nonzero;stroke:none" id="path42"/>
      <path d="m 12565.2,10460 c 0,0 554.4,-828.5 616.9,-1789.7 0,0 42,-261.7 -308.5,-231.3 -350.4,30.3 -600.3,605.5 -611.8,1092.8 -11.6,487.4 303.4,928.2 303.4,928.2" style="fill:#8c9df4;fill-opacity:1;fill-rule:nonzero;stroke:none" id="path44"/>
      <path d="m 12630.2,8660 c -1.3,-196 -3.3,-382.6 -5.2,-544 -1.3,-109.3 -2.6,-207.1 -3.6,-288.5 -169,30.7 -297,339 -244.4,544.4 53.6,209.5 -268.1,370.4 -404.6,506.8 -136.4,136.5 -97.9,209 -97.9,209 l 755.7,-427.7" style="fill:#6980e2;fill-opacity:1;fill-rule:nonzero;stroke:none" id="path46"/>
      <path d="m 12526.5,9201.9 c 0,0 -120.3,466.4 -169,466.4 -48.8,0 65,-204.7 19.5,-263.2 -45.5,-58.5 -278.7,65.6 -300.2,-12.7 -21.5,-78.3 476.3,-288.7 449.7,-190.5" style="fill:#6980e2;fill-opacity:1;fill-rule:nonzero;stroke:none" id="path48"/>
      <path d="m 11832.9,9480.1 c 0,0 -239.5,66.7 -255.6,150.6 -16,83.8 -16.9,202.8 -95.8,249.3 -78.9,46.4 -265,104.5 -298.6,63.9 -33.6,-40.6 36.3,-145.4 105.6,-215.3 69.3,-69.9 38.1,-219.9 109.9,-274.7 71.7,-54.8 325.4,-162.8 325.4,-162.8 l 109.1,189" style="fill:#ffb27d;fill-opacity:1;fill-rule:nonzero;stroke:none" id="path50"/>
      <path d="m 11577.3,9630.7 c 0,0 16.8,122.6 27.2,163.5 10.5,40.9 -20.4,23.7 -33.9,8.3 -13.5,-15.4 -42.2,-55.2 -33.9,-99.2 8.3,-43.9 40.6,-72.6 40.6,-72.6" style="fill:#ffb27d;fill-opacity:1;fill-rule:nonzero;stroke:none" id="path52"/>
      <path d="m 11577.7,9591.7 c 0,0 1091.7,-423.8 1247.7,-540.7 155.9,-117 163.9,-338.9 110.4,-439.1 -66.9,-125.4 -309.3,-95.2 -674,174.2 -288.6,213.2 -780,622.3 -780,622.3 l 95.9,183.3" style="fill:#ffb27d;fill-opacity:1;fill-rule:nonzero;stroke:none" id="path54"/>
      <path d="m 10628.7,8550.9 v -0.1 c -14.2,-6 -29.3,-9.5 -45.3,-9.9 -144.7,-3.7 -298.6,144.5 -370.7,226.4 83.7,47.6 223.1,74.6 283,36.7 97.4,-61.7 87.7,29.2 133,29.2 45.4,0 0,-282.3 0,-282.3" style="fill:#6980e2;fill-opacity:1;fill-rule:nonzero;stroke:none" id="path56"/>
      <path d="m 9440.24,10205.1 c 0,0 679.06,-1539.8 923.16,-1560.1 244.2,-20.3 150.1,420.3 98.1,566.1 -58.4,164.1 -326.6,394.1 -496.46,608.5 -140.11,176.9 -273.24,451 -273.24,451 l -251.56,-65.5" style="fill:#ffb27d;fill-opacity:1;fill-rule:nonzero;stroke:none" id="path58"/>
      <path d="m 17117.8,14774.4 c 139.1,592.8 412.6,1435.4 921.1,2042.7 39.7,47.3 92.4,68.4 144.3,68.4 98.9,0 195.2,-76.5 194.2,-194.2 0,-3 -0.1,-6 -0.2,-9.1 -5.8,-236.4 -584.5,-1067.2 -1037.8,-1898.1 -73.6,-0.3 -147.5,-3.5 -221.6,-9.7" style="fill:#dbe7fb;fill-opacity:1;fill-rule:nonzero;stroke:none" id="path60"/>
      <path d="m 17942.5,14720.1 c -143.5,31.6 -290,51.7 -437.9,59.8 398,657.8 979.5,1432.8 1718.1,1913.8 34.9,22.7 74.7,33.8 114.1,33.8 62.8,0 124.4,-28.3 162.7,-82.6 40.6,-57.5 59.6,-147.9 16.6,-290 -75.8,-250.6 -825.7,-900.6 -1573.6,-1634.8" style="fill:#dbe7fb;fill-opacity:1;fill-rule:nonzero;stroke:none" id="path62"/>
      <path d="m 14634.5,10785.7 c -274.1,82.1 -532.8,191.4 -730.5,305.4 -622.1,358.6 -268.5,450.3 192.4,636.5 102.9,41.5 218.9,57.3 340.2,57.3 18.3,0 36.7,-0.3 55.3,-1 10.8,-451.2 91.8,-768.9 91.8,-768.9 0,0 4.7,-20 12.9,-54.2 13.7,-57.6 26.3,-116 37.9,-175.1 m -746.4,1097.9 c -118.4,0 -247.3,12.7 -389.9,45.5 -741.7,170.3 -840.3,1704.4 -840.3,1704.4 271,-194.1 740.5,-278.1 1087,-278.1 222.8,0 394.7,34.7 430.4,97.3 91,159.7 -1232.6,580.4 -1421,700 -188.3,119.5 -411.4,649.7 84,1397.4 169.8,256.2 434.1,340.4 708.3,340.4 526.1,0 1088.3,-309.9 1088.3,-309.9 0,0 298.2,-956.7 560.7,-1081.9 17,-8.1 32,-11.9 45.3,-11.9 192,0.1 16.1,792.2 16.1,792.2 280.7,-64 716,-384.1 1073.6,-680.9 -239.1,-87.9 -475.7,-207.4 -705.7,-359.2 -901.3,-595.1 -1116.4,-1547.2 -1133.1,-2262.7 -20.6,-5 -41.5,-10.1 -62.6,-15.2 -160,-38.7 -334.6,-77.4 -541.1,-77.4" style="fill:#ccdbfd;fill-opacity:1;fill-rule:nonzero;stroke:none" id="path64"/>
      <path d="m 19775.2,15094.8 c 0,0 -343.3,-1067.8 -140.7,-1119.4 202.6,-51.6 296.7,1217.5 296.7,1217.5 0,0 1078,361.2 1472,272.4 0,0 -764.7,-988.7 -555.6,-988.8 209.1,-0.2 1052.6,991.7 1052.6,991.7 0,0 1066.5,62.1 1156.2,-576.5 89.6,-638.7 -219.4,-913.5 -378.6,-932.7 -58.6,-7.1 -229.3,7 -421.3,21.1 -330.3,24.3 -723.6,48.5 -717.6,-34.9 9.6,-131.9 652.8,-421.8 1040.5,-352.9 0,0 -539.5,-964.8 -1073.4,-845.4 -533.9,119.4 -659.2,475 -990.5,542.7 -331.3,67.8 -587.1,8.4 -431.1,-102.7 155.9,-111 729.7,-121.6 971,-385.3 241.4,-263.7 442.3,-432.7 -72.4,-472.6 -514.8,-39.8 -1407.4,137.7 -1539,546.3 -5.8,17.8 -11.2,34.8 -16.5,51.1 6.9,-33.2 16.5,-51.1 16.5,-51.1 -99.4,-42.4 -270.6,-282.4 -391.7,-467.9 -18,-31.9 -45.5,-75.7 -85.8,-134.8 v 0 c -16.6,-26.9 -30,-49 -39.3,-64.4 -232.5,-420.4 -234.8,-1196.4 -234.8,-1196.4 l -110.9,-15.3 c -140.7,800.1 355.5,1380.5 355.5,1380.5 333.2,467.9 375.3,907 375.3,907 0,0 -897.1,661.6 -354.6,1338.5 0,0 416.9,405 817.5,472.3" style="fill:#aec3ff;fill-opacity:1;fill-rule:nonzero;stroke:none" id="path66"/>
      <path d="m 21278.1,5323.5 c -340.7,0 -558.8,148 -624.1,271.2 -80.9,152.5 -284.1,971.5 -453.8,1345.1 h 2247.4 c 112.1,-450.7 162,-1092 -340,-1371 -324.4,-180.3 -603.9,-245.3 -829.5,-245.3 m -1169.3,213.3 c 0,0 -593.2,84.8 -1079.5,330.2 310.2,320.6 563.7,683.1 768,1072.8 h 149.9 c -83.6,-332.9 -66,-1026.6 161.6,-1403" style="fill:#ccdbfd;fill-opacity:1;fill-rule:nonzero;stroke:none" id="path68"/>
      <path d="m 17983,5079.7 c -3029.5,-1612.5 -3659.7,-240.3 -3652.6,528.8 4.7,438.2 239.1,1526.6 352.2,2726.8 83.6,885.8 102.5,1834 -86,2625.5 -8.2,34.2 -12.9,54.2 -12.9,54.2 0,0 -553.6,2170.8 1041.2,3223.9 1594.9,1053 3508.9,548.9 4351.1,-1235.6 842.2,-1784.5 1036.5,-6311.1 -1993,-7923.6" style="fill:#ffb27d;fill-opacity:1;fill-rule:nonzero;stroke:none" id="path70"/>
      <path d="m 17998.8,10745.3 c -7,-3.8 -15.5,-2.7 -21.4,2.6 -292,261.9 -732.9,415.5 -1316.1,457.8 -9.2,0.7 -16.2,8.7 -15.5,17.9 0.7,9.2 9.1,15.8 17.9,15.5 595.1,-43.2 1044.9,-201.6 1342.4,-472.1 6,-5.4 4.8,-15.1 -2.3,-19 l -5,-2.7" style="fill:#d3784a;fill-opacity:1;fill-rule:nonzero;stroke:none" id="path72"/>
      <path d="m 18398.1,9538.7 c 9.6,0.5 17.4,-7.9 16.3,-17.4 -34.3,-298.5 -126.2,-525.1 -155.8,-592.2 -233.1,-528 -561.7,-923.5 -1004.5,-1208.9 -33.6,-21.8 -67.5,-42.5 -101.6,-62.4 -6.8,-4 -15.6,-4.7 -22.2,-0.3 -5.1,3.3 -7.1,8.1 -7.1,12.9 0,5.3 2.7,10.6 7.7,13.4 35.3,20.5 70.3,41.9 105.1,64.4 437.2,281.9 761.7,672.5 992.1,1194.4 29.1,65.8 118.9,287.7 152.8,580.3 1,8.7 8.1,15.4 16.8,15.8 h 0.4" style="fill:#d3784a;fill-opacity:1;fill-rule:nonzero;stroke:none" id="path74"/>
      <path d="m 16380.4,11767.7 c -312.8,0 -608.2,56.6 -701.3,76.2 -45.4,468.2 51.6,1204.4 544.4,1525.9 293.1,-187.7 1263.3,-854.5 992.9,-1295.3 -148.7,-242.4 -502.3,-306.8 -836,-306.8" style="fill:#f6a16d;fill-opacity:1;fill-rule:nonzero;stroke:none" id="path76"/>
      <path d="m 16042.1,7909.5 c -210.5,-97.7 -149.6,-399 -327.6,-601.5 -178,-202.6 -665.4,-140.4 -807.6,126.4 -121.2,227.8 89.2,340.3 362.5,430.2 37.3,12.2 75.6,24 114.5,35.7 10.2,3 20.5,6.1 30.8,9.1 77.5,22.9 134.2,58 173.7,101.4 13.3,14.6 24.5,30.1 33.9,46.6 14.1,24.3 24.1,50.5 30.5,78.1 2,8.8 3.6,17.7 5,26.8 17.9,123.6 -30.7,269.7 -110.7,399.2 -6,9.7 -12.2,19.3 -18.5,28.9 -13.8,20.8 -27.4,43 -40.2,66.2 -19.7,35.8 -37.8,74 -53.3,113.7 -34.8,89.5 -55.9,185.9 -50.5,276.4 9.9,159.9 102.4,300.9 348.5,350.7 148.1,30.1 288.8,24.5 418.3,-2.8 103.6,-21.8 200.1,-57.3 287.2,-99.5 17,-8.1 33.6,-16.6 49.8,-25.3 98.1,-52.2 182.5,-111.5 249.8,-165.8 28,-22.6 52.9,-44.4 74.8,-64.4 17.7,-16.3 34.8,-32.3 51.5,-48 24.9,-23.4 48.5,-46.3 71,-68.6 1102.2,-1090.9 -487.1,-824.8 -893.4,-1013.5" style="fill:#ed905d;fill-opacity:1;fill-rule:nonzero;stroke:none" id="path78"/>
      <path d="m 18489.5,6901.4 c 1156.9,1310.4 1093,3731.1 608.9,5011.4 -484.1,1280.4 -1493.6,1802.4 -2484.9,1721.1 -991.4,-81.2 -1118.3,-1212 -1054.5,-1901.3 63.8,-689.2 568.6,-950.2 797.6,-1363.9 228.9,-413.6 658.2,-520 658.2,-520 0,0 574.2,-214.5 686.6,13.7 112.5,228.2 151.3,525.7 -219.5,703.5 -370.8,177.8 -1650.5,625.3 -1762.3,1041.1 -111.7,415.8 -82.7,1434.7 555.3,1794 638,359.2 1259.2,-702.6 1835.1,-883.7 575.9,-181.1 848,-412.5 872.3,-899.2 24.4,-486.7 228,-748.4 266.5,-967.9 38.6,-219.5 61.5,-1994 -493.1,-2778.7 -554.7,-784.7 -856.6,-590.2 -1107.3,-900.4 -250.7,-310.1 48.9,-549 286,-494.7 237.1,54.3 555.1,425 555.1,425" style="fill:#ed905d;fill-opacity:1;fill-rule:nonzero;stroke:none" id="path80"/>
      <path d="m 14329.8,5591.5 c -8.9,0.4 -15.9,7.8 -15.8,16.7 1.8,468.9 224.9,772.7 411.6,945 202.2,186.5 400.9,261.1 409.2,264.2 8.7,3.1 18.3,-1.3 21.5,-9.9 3.2,-8.7 -1.3,-18.3 -9.9,-21.5 -2,-0.7 -201.7,-75.8 -399.1,-258.2 -181.4,-167.7 -398.1,-463.4 -399.9,-919.7 0,-9.3 -7.6,-16.7 -16.8,-16.7 l -0.8,0.1" style="fill:#d3784a;fill-opacity:1;fill-rule:nonzero;stroke:none" id="path82"/>
      <path d="m 15000.6,8985.5 c 14.2,-394.6 -318,-650.2 -318,-650.2 83.6,885.8 102.5,1834 -86,2625.5 42.4,-170.8 193.2,-709.1 470,-948.2 331,-287.4 -81.3,-632.5 -66,-1027.1" style="fill:#ed905d;fill-opacity:1;fill-rule:nonzero;stroke:none" id="path84"/>
      <path d="m 6143.28,9732.3 c -37.01,71.4 807.19,328.3 820.56,-375.9 0,0 1581.41,38.9 826.33,920.3 -261.41,305.2 -234.52,557.5 -226.68,792.3 7.95,234.9 -162.82,917.6 -748.17,848.8 0,0 -153.29,62.4 -344.59,-36.9 -435.06,-225.7 -1409.64,-2408.3 -327.45,-2148.6" style="fill:#163560;fill-opacity:1;fill-rule:nonzero;stroke:none" id="path86"/>
      <path d="m 8728.68,9085.9 c 0,0 102.94,156.7 185.9,159.8 82.96,3 236.6,46.1 224.3,15.3 -12.29,-30.7 -107.54,-33.8 -116.76,-52.2 -9.21,-18.4 141.35,-46.1 184.36,-49.2 43.02,-3 144.42,0 141.35,-21.5 -3.07,-21.5 -182.76,-110.6 -309.54,-98.3 -126.79,12.3 -283.49,-36.9 -283.49,-36.9 l -26.12,83" style="fill:#ffb27d;fill-opacity:1;fill-rule:nonzero;stroke:none" id="path88"/>
      <path d="m 7239.97,9035.2 c 0,0 55.95,-110.8 157.44,-238.1 122.33,-153.2 310.93,-330.2 547.74,-365.1 113.1,-16.7 223.72,7.6 325.4,52.8 l 0.36,0.1 c 287.61,127.6 503.86,421.3 503.86,421.3 50.7,138.2 -32.26,232 -32.26,232 0,0 -580.74,-130.7 -636.05,-103 -55.3,27.7 -395.35,782 -456.6,907.7 -130.19,267 -336.79,343.7 -336.79,343.7 l -73.1,-1251.4" style="fill:#ffa561;fill-opacity:1;fill-rule:nonzero;stroke:none" id="path90"/>
      <path d="m 7397.41,8797.1 c 122.33,-153.2 310.93,-330.2 547.74,-365.1 113.1,-16.7 223.72,7.6 325.4,52.8 -11.25,-1.5 -298.48,-37 -412.97,167.9 -116.79,208.9 -243.08,540.8 -416.56,430.2 -74.86,-47.8 -71.54,-166.4 -43.61,-285.8" style="fill:#f4904d;fill-opacity:1;fill-rule:nonzero;stroke:none" id="path92"/>
      <path d="m 5073.34,2766.5 c 0,0 -177.2,-161.8 -142.63,-276.7 34.58,-114.9 194.5,-191.5 216.11,-331.9 21.61,-140.5 108.05,-217.1 185.85,-217.1 77.79,0 370.89,0 370.89,0 0,0 57.27,98.9 -81.03,128.7 -138.31,29.7 -190.45,194.8 -181.81,348 8.64,153.2 -12.97,357.5 -12.97,357.5 l -293.9,68.1 -60.51,-76.6" style="fill:#1c4b8e;fill-opacity:1;fill-rule:nonzero;stroke:none" id="path94"/>
      <path d="m 6573.2,2697.8 c 0,0 -63.75,-685.1 14.05,-723.4 l 995.62,2 c 0,0 0,114.9 -159.92,140.5 -159.91,25.5 -440.85,119.1 -488.39,327.7 -47.54,208.5 -361.36,253.2 -361.36,253.2" style="fill:#1c4b8e;fill-opacity:1;fill-rule:nonzero;stroke:none" id="path96"/>
      <path d="m 5807.31,9497.3 c 0,0 138.17,164.4 153.01,-86.6 9.87,-166.4 25.16,-762.8 49.04,-818 59.92,-138.2 127.49,-160.7 127.49,-160.7 l 522.75,-128.2 183.81,-44.9 579.63,173.1 c 0,0 264.01,736.9 158,1151.7 -106.01,414.8 -267.97,702.9 -267.97,702.9 0,0 -392.95,155 -1088.84,39.2 l -416.92,-828.5" style="fill:#ffa561;fill-opacity:1;fill-rule:nonzero;stroke:none" id="path98"/>
      <path d="m 5960.32,8969.2 c 9.87,-166.4 25.16,-321.3 49.04,-376.5 59.92,-138.2 127.49,-160.7 127.49,-160.7 l 522.75,-128.2 227.04,66.8 c 0,0 -757.9,114.8 -673.93,766.9 l -252.39,-168.3" style="fill:#f4904d;fill-opacity:1;fill-rule:nonzero;stroke:none" id="path100"/>
      <path d="m 7386.17,8320.1 c 0,0 287.05,-893.4 305.48,-1197.6 18.44,-304.2 -548.7,-4321.4 -571.52,-4461.6 -21.5,-132.1 -185.57,-216.3 -185.57,-216.3 0,0 -75.46,-44.5 -183.15,-14.1 -149.42,42.2 -196.65,92.7 -196.65,92.7 0,0 -223.42,2865 -85.16,3888.4 138.27,1023.5 139.89,1908.5 139.89,1908.5 h 776.68" style="fill:#6980e2;fill-opacity:1;fill-rule:nonzero;stroke:none" id="path102"/>
      <path d="m 6170.02,8346.8 c 0,0 -437.86,-587.5 -478.68,-984.7 -40.82,-397.1 -64.04,-1792.1 -151,-2179.3 -86.97,-387.1 -406.49,-1132.2 -406.49,-2339.7 0,0 33.21,-69.3 135.76,-106.1 32.8,-11.8 76.73,-23.3 119.39,-33 84.57,-19.4 171.34,21.9 209.94,99.6 216.02,435 904.12,1837.7 939.39,2128.9 24.97,206.1 242.24,1569.9 716.16,2370.2 113.77,192.1 -69.83,956.2 -69.83,956.2 l -1014.64,87.9" style="fill:#8c9df4;fill-opacity:1;fill-rule:nonzero;stroke:none" id="path104"/>
      <path d="m 7432.03,8458 c 0,0 -115.24,-91.1 -344.16,-95.7 -273.44,-5.5 -950.99,69.7 -950.99,69.7 0,0 -30.11,-84.1 -28.88,-172.9 0,0 827.52,-208.8 1306.99,-30.5 0,0 61.84,116.3 17.04,229.4" style="fill:#233862;fill-opacity:1;fill-rule:nonzero;stroke:none" id="path106"/>
      <path d="m 7070.05,8267.9 c 0,-55.1 37.43,-99.9 83.42,-99.9 46,0 83.42,44.8 83.42,99.9 0,55 -37.42,99.8 -83.42,99.8 -45.99,0 -83.42,-44.8 -83.42,-99.8 z m -41.35,0 c 0,77.8 55.97,141.2 124.77,141.2 68.8,0 124.77,-63.4 124.77,-141.2 0,-77.9 -55.97,-141.2 -124.77,-141.2 -68.8,0 -124.77,63.3 -124.77,141.2" style="fill:#ffffff;fill-opacity:1;fill-rule:nonzero;stroke:none" id="path108"/>
      <path d="m 6506.48,10363.8 c 39.53,95.9 62.6,241.9 61.95,422.6 l 26.25,-5.2 441.29,-87.3 c 0,0 -10.05,-138.9 -10.34,-269.8 0,-1 -0.01,-2.1 -0.01,-3.2 -0.54,-113.6 76.76,-227.6 -105.5,-272.7 -56.32,-13.9 -496.64,14.3 -413.64,215.6" style="fill:#ffb27d;fill-opacity:1;fill-rule:nonzero;stroke:none" id="path110"/>
      <path d="m 7035.97,10693.9 c 0,0 -10.04,-138.9 -10.34,-269.8 -246.94,7 -377.47,232.3 -430.95,357.1 l 441.29,-87.3" style="fill:#e8945b;fill-opacity:1;fill-rule:nonzero;stroke:none" id="path112"/>
      <path d="m 7118.43,10570 c 0,0 -584.25,-9.7 -584.65,354.3 -0.4,363.9 -76.08,607.8 296.93,629.3 373.02,21.5 445.65,-117.2 475.33,-238.7 29.68,-121.4 -35.64,-733 -187.61,-744.9" style="fill:#ffb27d;fill-opacity:1;fill-rule:nonzero;stroke:none" id="path114"/>
      <path d="m 7096.81,11562.5 c 0,0 -159.97,-426.9 -405.47,-490.1 -245.5,-63.1 -351.98,2.7 -351.98,2.7 0,0 188.31,149.6 227.38,410.7 0,0 409.4,279.9 530.07,76.7" style="fill:#163560;fill-opacity:1;fill-rule:nonzero;stroke:none" id="path116"/>
      <path d="m 7057.16,11527.9 c 0,0 118.63,-44.4 167.44,-130.9 47.75,-84.6 88.42,-196.7 78.98,-334.1 0,0 120.52,290.2 -14.92,454.4 -143.62,174 -231.5,10.6 -231.5,10.6" style="fill:#163560;fill-opacity:1;fill-rule:nonzero;stroke:none" id="path118"/>
      <path d="m 6224.23,10325.8 c 0,0 -266.15,-58.5 -383.13,-224.2 -116.97,-165.8 -257.66,-1510.9 -33.79,-1584.1 223.88,-73.1 477.32,34.2 487.07,565.4 9.74,531.3 -70.15,1242.9 -70.15,1242.9" style="fill:#ffa561;fill-opacity:1;fill-rule:nonzero;stroke:none" id="path120"/>
      <path d="m 6834.28,9593.6 c 0,0 -154.13,-139.1 -342.51,-254.8 -217.13,-133.4 -475.95,-250.8 -534.19,-335.6 -108.79,-158.2 -138.7,-405.4 -18.11,-437.8 120.59,-32.4 278.64,7.6 524.1,279.2 245.46,271.6 458.06,579 458.06,579 l -87.35,170" style="fill:#ffb27d;fill-opacity:1;fill-rule:nonzero;stroke:none" id="path122"/>
      <path d="m 6834.28,9593.6 c 0,0 -23.94,229.2 -5.59,281.9 18.34,52.8 297.35,193.3 301.79,146.2 4.44,-47.1 -90.75,-115.3 -78.74,-192.7 13.49,-86.8 29.48,-192.2 -16.07,-236.6 -45.54,-44.4 -114.04,-168.8 -114.04,-168.8 l -87.35,170" style="fill:#ffb27d;fill-opacity:1;fill-rule:nonzero;stroke:none" id="path124"/>
      <path d="m 6834.28,9593.6 c 0,0 -35.53,137.5 -64.73,180.4 -29.21,42.8 50.9,20.4 75.97,-31.3 25.06,-51.8 -11.24,-149.1 -11.24,-149.1" style="fill:#ffb27d;fill-opacity:1;fill-rule:nonzero;stroke:none" id="path126"/>
      <path d="m 9566.43,11931.4 -273.04,1798.5 2102.71,822.1 7.1,-18.2 -2088.2,-816.3 270.71,-1783.1 -19.28,-3" style="fill:#aec3ff;fill-opacity:1;fill-rule:nonzero;stroke:none" id="path128"/>
      <path d="m 8409,12244.7 -16.62,10.2 903.51,1473.9 16.62,-10.2 L 8409,12244.7" style="fill:#aec3ff;fill-opacity:1;fill-rule:nonzero;stroke:none" id="path130"/>
      <path d="m 11486.5,14660.9 c 65.2,-48 79.1,-139.7 31.1,-204.8 -48,-65.2 -139.7,-79.1 -204.8,-31.1 -65.1,47.9 -79,139.6 -31.1,204.8 48,65.1 139.7,79 204.8,31.1" style="fill:#163560;fill-opacity:1;fill-rule:nonzero;stroke:none" id="path132"/>
      <path d="m 9662.92,12050.9 c 65.13,-48 79.05,-139.7 31.09,-204.8 -47.97,-65.2 -139.65,-79.1 -204.79,-31.1 -65.14,47.9 -79.06,139.6 -31.09,204.8 47.96,65.1 139.65,79 204.79,31.1" style="fill:#163560;fill-opacity:1;fill-rule:nonzero;stroke:none" id="path134"/>
      <path d="m 8503.87,12389.9 c 65.14,-48 79.06,-139.7 31.09,-204.8 -47.96,-65.2 -139.65,-79.1 -204.79,-31.1 -65.13,48 -79.05,139.7 -31.09,204.8 47.97,65.1 139.66,79 204.79,31.1" style="fill:#163560;fill-opacity:1;fill-rule:nonzero;stroke:none" id="path136"/>
      <path d="m 9391.04,13841.7 c 65.14,-48 79.06,-139.7 31.1,-204.8 -47.97,-65.2 -139.65,-79.1 -204.79,-31.1 -65.14,47.9 -79.06,139.6 -31.1,204.8 47.97,65.1 139.66,79 204.79,31.1" style="fill:#8c9df4;fill-opacity:1;fill-rule:nonzero;stroke:none" id="path138"/>
      <path d="m 25340.4,4931.3 -15.5,11.9 658.3,853.9 -755.8,1010.2 15.6,11.7 764.7,-1022.1 -667.3,-865.6" style="fill:#aec3ff;fill-opacity:1;fill-rule:nonzero;stroke:none" id="path140"/>
      <path d="m 25088.7,6813.2 c 0,80.9 65.6,146.4 146.5,146.4 80.9,0 146.4,-65.5 146.4,-146.4 0,-80.9 -65.5,-146.5 -146.4,-146.5 -80.9,0 -146.5,65.6 -146.5,146.5" style="fill:#163560;fill-opacity:1;fill-rule:nonzero;stroke:none" id="path142"/>
      <path d="m 25906.6,5791.8 c 0,46.1 37.4,83.4 83.4,83.4 46.1,0 83.5,-37.3 83.5,-83.4 0,-46.1 -37.4,-83.4 -83.5,-83.4 -46,0 -83.4,37.3 -83.4,83.4" style="fill:#ccdbfd;fill-opacity:1;fill-rule:nonzero;stroke:none" id="path144"/>
      <path d="m 25253.5,4937.3 c 0,46 37.4,83.4 83.4,83.4 46.1,0 83.5,-37.4 83.5,-83.4 0,-46.1 -37.4,-83.4 -83.5,-83.4 -46,0 -83.4,37.3 -83.4,83.4" style="fill:#ccdbfd;fill-opacity:1;fill-rule:nonzero;stroke:none" id="path146"/>
      <path d="m 17489.4,3682.6 -8.2,17.7 2212.1,1034.2 h 2838.8 l 1679.4,740 7.9,-17.9 L 22536.2,4715 H 19697.6 L 17489.4,3682.6" style="fill:#aec3ff;fill-opacity:1;fill-rule:nonzero;stroke:none" id="path148"/>
      <path d="m 24734.6,3780 -2204.3,935.7 7.6,18 2204.3,-935.8 -7.6,-17.9" style="fill:#aec3ff;fill-opacity:1;fill-rule:nonzero;stroke:none" id="path150"/>
      <path d="m 17338.8,3691.5 c 0,80.8 65.6,146.4 146.5,146.4 80.9,0 146.5,-65.6 146.5,-146.4 0,-80.9 -65.6,-146.5 -146.5,-146.5 -80.9,0 -146.5,65.6 -146.5,146.5" style="fill:#8c9df4;fill-opacity:1;fill-rule:nonzero;stroke:none" id="path152"/>
      <path d="m 19634.3,4725 c 0,46.7 37.9,84.6 84.7,84.6 46.7,0 84.6,-37.9 84.6,-84.6 0,-46.8 -37.9,-84.7 -84.6,-84.7 -46.8,0 -84.7,37.9 -84.7,84.7" style="fill:#ccdbfd;fill-opacity:1;fill-rule:nonzero;stroke:none" id="path154"/>
      <path d="m 22431.9,4725 c 0,80.9 65.5,146.4 146.4,146.4 80.9,0 146.5,-65.5 146.5,-146.4 0,-80.9 -65.6,-146.5 -146.5,-146.5 -80.9,0 -146.4,65.6 -146.4,146.5" style="fill:#8c9df4;fill-opacity:1;fill-rule:nonzero;stroke:none" id="path156"/>
      <path d="m 24069,5465.5 c 0,80.9 65.5,146.5 146.4,146.5 80.9,0 146.5,-65.6 146.5,-146.5 0,-80.9 -65.6,-146.4 -146.5,-146.4 -80.9,0 -146.4,65.5 -146.4,146.4" style="fill:#ccdbfd;fill-opacity:1;fill-rule:nonzero;stroke:none" id="path158"/>
      <path d="m 24592,3788.9 c 0,80.9 65.5,146.5 146.4,146.5 80.9,0 146.5,-65.6 146.5,-146.5 0,-80.9 -65.6,-146.4 -146.5,-146.4 -80.9,0 -146.4,65.5 -146.4,146.4" style="fill:#ccdbfd;fill-opacity:1;fill-rule:nonzero;stroke:none" id="path160"/>
      <path d="m 22142.1,3525.7 h -1100.7 l -1076.5,527.4 8.6,17.5 1072.4,-525.4 h 1096.2 v -19.5" style="fill:#aec3ff;fill-opacity:1;fill-rule:nonzero;stroke:none" id="path162"/>
      <path d="m 21959.2,3535.5 c 0,80.9 65.6,146.5 146.5,146.5 80.9,0 146.4,-65.6 146.4,-146.5 0,-80.9 -65.5,-146.5 -146.4,-146.5 -80.9,0 -146.5,65.6 -146.5,146.5" style="fill:#ccdbfd;fill-opacity:1;fill-rule:nonzero;stroke:none" id="path164"/>
      <path d="m 19829.5,4061.9 c 0,80.9 65.6,146.4 146.4,146.4 80.9,0 146.5,-65.5 146.5,-146.4 0,-80.9 -65.6,-146.5 -146.5,-146.5 -80.8,0 -146.4,65.6 -146.4,146.5" style="fill:#ccdbfd;fill-opacity:1;fill-rule:nonzero;stroke:none" id="path166"/>
      <path d="m 20965.4,3535.5 c 0,40.4 32.8,73.2 73.2,73.2 40.5,0 73.3,-32.8 73.3,-73.2 0,-40.5 -32.8,-73.2 -73.3,-73.2 -40.4,0 -73.2,32.7 -73.2,73.2" style="fill:#163560;fill-opacity:1;fill-rule:nonzero;stroke:none" id="path168"/>
      <path d="m 8777.16,1993.6 h 750.93 c 40.24,34.1 -27.85,111.6 -98.99,116.8 -30.9,2.4 -69.97,-4.1 -114.61,-13.5 -10.33,137.2 -69.34,754.2 -291.75,729.4 -250.06,-27.7 0,-271.7 70.69,-416.1 52.37,-107 107.61,-260.4 132.85,-332.8 -20.3,-4.4 -41.32,-8.7 -62.78,-12.7 -33.15,101.8 -156.48,444.1 -313.31,424.2 -184.14,-23.4 -110.12,-160.6 20.39,-242.1 95.75,-59.9 213.33,-145.1 269.2,-186.2 -47.34,-7.7 -96.74,-12.9 -146.86,-11.8 -128.63,3.1 -191.41,-34.8 -215.76,-55.2" style="fill:#a8d29f;fill-opacity:1;fill-rule:nonzero;stroke:none" id="path170"/>
      <path d="M 22978.2,1993.6 H 22218 c -40.7,34.5 28.2,113 100.2,118.3 31.3,2.3 70.9,-4.2 116.1,-13.7 10.4,138.9 70.2,763.5 295.3,738.4 253.2,-28.1 0,-275.1 -71.6,-421.3 -53,-108.3 -108.9,-263.6 -134.4,-336.9 20.5,-4.4 41.8,-8.8 63.5,-12.8 33.6,103 158.4,449.6 317.2,429.4 186.4,-23.7 111.5,-162.6 -20.7,-245.1 -96.9,-60.6 -215.9,-146.8 -272.5,-188.5 47.9,-7.8 98,-13.1 148.7,-11.9 130.2,3.1 193.8,-35.3 218.4,-55.9" style="fill:#a8d29f;fill-opacity:1;fill-rule:nonzero;stroke:none" id="path172"/>
      <path d="m 14397.8,2897.1 c 62.7,-25.4 286.5,-4.8 293.8,13 7.2,17.9 -139.2,188.5 -201.8,213.9 -62.7,25.4 -134.1,-4.8 -159.4,-67.5 -25.4,-62.6 4.8,-134 67.4,-159.4" style="fill:#a8d29f;fill-opacity:1;fill-rule:nonzero;stroke:none" id="path174"/>
      <path d="m 14962.5,2790.3 c -35.1,-57.8 -51,-282 -34.5,-292 16.4,-10.1 208.4,106.8 243.6,164.6 35.2,57.7 16.9,133 -40.8,168.2 -57.8,35.2 -133.1,16.9 -168.3,-40.8" style="fill:#a8d29f;fill-opacity:1;fill-rule:nonzero;stroke:none" id="path176"/>
      <path d="m 14660.8,2351.4 c 64.4,-20.5 286.1,17 291.9,35.4 5.9,18.4 -153,177.3 -217.5,197.9 -64.4,20.5 -133.2,-15 -153.8,-79.4 -20.5,-64.5 15,-133.3 79.4,-153.9" style="fill:#a8d29f;fill-opacity:1;fill-rule:nonzero;stroke:none" id="path178"/>
      <path d="m 14986.9,2134.4 c -0.3,5.1 -25,512.6 -302.9,774.6 l 5.9,6.3 c 280.5,-264.4 305.3,-775.4 305.6,-780.5 l -8.6,-0.4" style="fill:#a8d29f;fill-opacity:1;fill-rule:nonzero;stroke:none" id="path180"/>
      <path d="m 15914.4,2886.2 c -39,-25.9 -193.8,-43 -201.2,-31.8 -7.4,11.1 68.4,147.2 107.4,173.1 39,25.9 91.7,15.3 117.6,-23.8 25.9,-39 15.2,-91.6 -23.8,-117.5" style="fill:#a8d29f;fill-opacity:1;fill-rule:nonzero;stroke:none" id="path182"/>
      <path d="m 15545.8,2735.5 c 31.9,-34.4 73.7,-184.4 63.9,-193.5 -9.8,-9.1 -156.4,43.7 -188.2,78.1 -31.9,34.3 -29.9,87.9 4.4,119.8 34.4,31.9 88,29.9 119.9,-4.4" style="fill:#a8d29f;fill-opacity:1;fill-rule:nonzero;stroke:none" id="path184"/>
      <path d="m 15811.4,2479.3 c -40.9,-22.9 -196.6,-28.1 -203.1,-16.4 -6.6,11.7 79.4,141.6 120.3,164.4 40.8,22.9 92.5,8.3 115.4,-32.6 22.9,-40.9 8.2,-92.6 -32.6,-115.4" style="fill:#a8d29f;fill-opacity:1;fill-rule:nonzero;stroke:none" id="path186"/>
      <path d="m 15620,2286.8 c -0.5,3.5 -53.9,351.5 98.5,567.9 l -4.9,3.4 c -153.8,-218.4 -100,-568.7 -99.5,-572.2 l 5.9,0.9" style="fill:#a8d29f;fill-opacity:1;fill-rule:nonzero;stroke:none" id="path188"/>
      <path d="m 15344.9,2164 -17.7,2.8 c -69.6,900.9 -344.7,1547.5 -348.6,1556.2 l 16.1,7 c 3.9,-8.9 281,-659.7 350.2,-1566" style="fill:#a8d29f;fill-opacity:1;fill-rule:nonzero;stroke:none" id="path190"/>
      <path d="m 14792,3813.7 c 33.9,-38.4 192.8,-100.3 203.7,-90.6 11,9.7 -30.6,175 -64.5,213.5 -34,38.4 -92.6,42.1 -131,8.1 -38.5,-33.9 -42.1,-92.6 -8.2,-131" style="fill:#ffffff;fill-opacity:1;fill-rule:nonzero;stroke:none" id="path192"/>
      <path d="m 15035.4,3947.7 c -30.6,-41.1 -58.4,-209.3 -46.7,-218 11.7,-8.8 165,66 195.6,107.1 30.6,41.1 22.1,99.2 -19,129.9 -41.1,30.6 -99.2,22.1 -129.9,-19" style="fill:#ffffff;fill-opacity:1;fill-rule:nonzero;stroke:none" id="path194"/>
      <path d="m 15218.2,3768.9 c -49.5,13.4 -216.2,-22.2 -220,-36.3 -3.9,-14.1 121.7,-129.4 171.2,-142.8 49.4,-13.5 100.5,15.6 113.9,65.1 13.5,49.5 -15.7,100.5 -65.1,114" style="fill:#ffffff;fill-opacity:1;fill-rule:nonzero;stroke:none" id="path196"/>
      <path d="m 15105.5,3545.9 c -4.9,51 -97.3,194.3 -111.9,192.9 -14.5,-1.4 -77.8,-159.7 -72.8,-210.8 4.9,-51 50.3,-88.4 101.3,-83.4 51,4.9 88.4,50.3 83.4,101.3" style="fill:#ffffff;fill-opacity:1;fill-rule:nonzero;stroke:none" id="path198"/>
      <path d="m 14852.7,3556.9 c 45.4,23.8 143.1,163.5 136.3,176.4 -6.8,13 -177.2,11.8 -222.6,-12.1 -45.4,-23.8 -62.9,-79.9 -39.1,-125.3 23.9,-45.4 80,-62.9 125.4,-39" style="fill:#ffffff;fill-opacity:1;fill-rule:nonzero;stroke:none" id="path200"/>
      <path d="m 14958.9,3738.1 c 2.6,16.7 18.3,28.1 35,25.4 16.6,-2.7 28,-18.3 25.3,-35 -2.6,-16.7 -18.3,-28 -35,-25.4 -16.6,2.7 -28,18.3 -25.3,35" style="fill:#f77d48;fill-opacity:1;fill-rule:nonzero;stroke:none" id="path202"/>
      <path d="m 15339.9,3085.1 c -50.5,-62 -104.9,-322.2 -87.2,-336.6 17.7,-14.4 261.3,91.9 311.8,154 50.4,62 41,153.2 -21,203.6 -62,50.5 -153.2,41.1 -203.6,-21" style="fill:#a8d29f;fill-opacity:1;fill-rule:nonzero;stroke:none" id="path204"/>
      <path d="m 13922,2913.4 c 3.6,-5.3 164.9,-278 316.3,-716.4 -6.2,1.8 -11.5,2.6 -17.8,4.4 -149.7,431.3 -307.4,698.6 -311,704 l 12.5,8" style="fill:#a8d29f;fill-opacity:1;fill-rule:nonzero;stroke:none" id="path206"/>
      <path d="m 13736.3,2963.2 c 33.9,-29.6 179.3,-65.1 187.8,-55.4 8.4,9.7 -46.9,148.8 -80.8,178.3 -34,29.6 -85.5,26 -115,-7.9 -29.6,-34 -26,-85.5 8,-115" style="fill:#ffffff;fill-opacity:1;fill-rule:nonzero;stroke:none" id="path208"/>
      <path d="m 13932.8,3107.8 c -22,-39.3 -26.8,-188.9 -15.6,-195.1 11.2,-6.3 136,76.4 157.9,115.7 22,39.3 7.9,89 -31.4,110.9 -39.3,21.9 -89,7.9 -110.9,-31.5" style="fill:#ffffff;fill-opacity:1;fill-rule:nonzero;stroke:none" id="path210"/>
      <path d="m 14112.4,2973.2 c -44.6,6 -185.6,-44.1 -187.3,-56.9 -1.7,-12.7 120.9,-98.6 165.5,-104.6 44.6,-6.1 85.6,25.2 91.7,69.8 6,44.6 -25.2,85.7 -69.9,91.7" style="fill:#ffffff;fill-opacity:1;fill-rule:nonzero;stroke:none" id="path212"/>
      <path d="m 14040.1,2766.1 c -10.2,43.9 -107.1,158 -119.7,155.1 -12.5,-2.9 -49.3,-148 -39.1,-191.9 10.1,-43.8 53.9,-71.2 97.8,-61 43.8,10.2 71.1,54 61,97.8" style="fill:#ffffff;fill-opacity:1;fill-rule:nonzero;stroke:none" id="path214"/>
      <path d="m 13818.7,2746.6 c 36.7,25.9 105.8,158.8 98.4,169.3 -7.5,10.5 -155.7,-10.2 -192.5,-36.2 -36.8,-26 -45.5,-76.8 -19.5,-113.6 25.9,-36.8 76.8,-45.5 113.6,-19.5" style="fill:#ffffff;fill-opacity:1;fill-rule:nonzero;stroke:none" id="path216"/>
      <path d="m 13890.2,2916.6 c 0.4,14.8 12.7,26.5 27.6,26.1 14.8,-0.4 26.5,-12.7 26.1,-27.5 -0.4,-14.9 -12.7,-26.6 -27.6,-26.2 -14.8,0.4 -26.5,12.8 -26.1,27.6" style="fill:#f77d48;fill-opacity:1;fill-rule:nonzero;stroke:none" id="path218"/>
      <path d="m 14192,2619.6 c -28.3,-46.1 -41.7,-225.2 -28.6,-233.3 13.2,-8.1 167,84.8 195.3,130.8 28.3,46 13.9,106.3 -32.1,134.6 -46,28.3 -106.3,13.9 -134.6,-32.1" style="fill:#a8d29f;fill-opacity:1;fill-rule:nonzero;stroke:none" id="path220"/>
      <path d="m 16313.1,2150.1 19.3,3 c 76.1,984.7 376.8,1691.3 381,1700.9 l -17.6,7.6 c -4.2,-9.7 -307.1,-720.9 -382.7,-1711.5" style="fill:#a8d29f;fill-opacity:1;fill-rule:nonzero;stroke:none" id="path222"/>
      <path d="m 16917.4,3953.1 c -37.1,-42 -210.7,-109.5 -222.7,-99 -12,10.6 33.5,191.3 70.6,233.3 37.1,42 101.2,46 143.2,8.9 42,-37 46,-101.2 8.9,-143.2" style="fill:#ffffff;fill-opacity:1;fill-rule:nonzero;stroke:none" id="path224"/>
      <path d="m 16651.3,4099.6 c 33.5,-45 63.9,-228.8 51.1,-238.3 -12.8,-9.6 -180.3,72.1 -213.8,117 -33.4,45 -24.2,108.5 20.8,142 44.9,33.5 108.4,24.2 141.9,-20.7" style="fill:#ffffff;fill-opacity:1;fill-rule:nonzero;stroke:none" id="path226"/>
      <path d="m 16451.6,3904.1 c 54.1,14.8 236.3,-24.2 240.5,-39.6 4.2,-15.4 -133.1,-141.4 -187.1,-156.1 -54.1,-14.8 -109.9,17.1 -124.6,71.2 -14.7,54 17.1,109.8 71.2,124.5" style="fill:#ffffff;fill-opacity:1;fill-rule:nonzero;stroke:none" id="path228"/>
      <path d="m 16574.7,3660.4 c 5.4,55.8 106.4,212.4 122.3,210.8 15.9,-1.5 85.1,-174.5 79.7,-230.3 -5.4,-55.8 -55,-96.6 -110.8,-91.2 -55.7,5.4 -96.6,55 -91.2,110.7" style="fill:#ffffff;fill-opacity:1;fill-rule:nonzero;stroke:none" id="path230"/>
      <path d="m 16851.1,3672.4 c -49.6,26.1 -156.5,178.7 -149.1,192.9 7.5,14.1 193.8,12.8 243.4,-13.2 49.6,-26.1 68.7,-87.4 42.7,-137 -26.1,-49.6 -87.4,-68.7 -137,-42.7" style="fill:#ffffff;fill-opacity:1;fill-rule:nonzero;stroke:none" id="path232"/>
      <path d="m 16735,3870.5 c -2.9,18.2 -20,30.7 -38.2,27.8 -18.2,-2.9 -30.7,-20.1 -27.8,-38.3 3,-18.2 20.1,-30.6 38.3,-27.7 18.2,2.9 30.6,20 27.7,38.2" style="fill:#f77d48;fill-opacity:1;fill-rule:nonzero;stroke:none" id="path234"/>
      <path d="m 16268.2,2893.2 c 55.2,-67.8 114.7,-352.3 95.3,-368 -19.3,-15.7 -285.7,100.5 -340.8,168.3 -55.1,67.8 -44.9,167.5 22.9,222.6 67.8,55.1 167.5,44.9 222.6,-22.9" style="fill:#a8d29f;fill-opacity:1;fill-rule:nonzero;stroke:none" id="path236"/>
      <path d="m 16589.4,2828.7 c -77.7,-40 -246.4,-276.7 -234.9,-298.8 11.4,-22.2 301.9,-22.6 379.7,17.4 77.7,40 108.2,135.4 68.3,213.1 -40,77.7 -135.4,108.2 -213.1,68.3" style="fill:#a8d29f;fill-opacity:1;fill-rule:nonzero;stroke:none" id="path238"/>
      <path d="m 13707.4,2009.8 c 0,0 89,234 412.1,248.7 323.2,14.7 545.7,-176.3 812.7,-88.1 267,88.1 708.9,287.1 1126.9,154.6 418,-132.6 488.5,-315.2 488.5,-315.2 h -2840.2" style="fill:#a8d29f;fill-opacity:1;fill-rule:nonzero;stroke:none" id="path240"/>
      <g id="g242">
        <g id="g244" clip-path="url(#clipPath248)">
          <path d="m 19947.2,6939.8 h 3153.7 v 4572.91 h -3153.7 z" style="fill:#fbfdfe;fill-opacity:1;fill-rule:nonzero;stroke:none" id="path250"/>
        </g>
      </g>
      <path d="m 22447.6,6939.8 h -2247.4 c -51.6,113.5 -100.1,185.9 -141.2,185.9 -5.1,0 -10.1,-1.1 -14.9,-3.4 -39.2,-18.4 -72.4,-85 -96.9,-182.5 h -149.9 c 464.4,885.5 673.7,1909.7 710.9,2889.9 223.4,59.2 382.4,107.3 382.4,107.3 0,0 1046.6,-1265.2 1131.7,-1842.3 0,0 -1068,319.3 -1473,319.3 -110.4,0 -171.5,-23.7 -148.3,-84.1 108.4,-281.9 1883.3,-903.5 1883.3,-903.5 0,0 93.7,-206.5 163.3,-486.6 m -1933.6,3145 c 0.7,77.6 0.2,154.5 -1.2,231.2 62.8,-69.2 119.1,-142.6 164.6,-219.6 0,0 -62.8,-3.5 -163.4,-11.6" style="fill:#f5f8ff;fill-opacity:1;fill-rule:nonzero;stroke:none" id="path252"/>
      <path d="m 19797.3,6939.8 h -628.5 c -190,0 -361.4,83.7 -479,216.2 849.9,1211.3 869.2,3111.2 536.2,4356.7 h 1180.3 c 60.9,-374.8 98.7,-778.8 106.5,-1196.7 1.4,-76.7 1.9,-153.6 1.2,-231.2 -0.6,-84.5 -2.6,-169.7 -5.8,-255.1 -37.2,-980.2 -246.5,-2004.4 -710.9,-2889.9 m -1269.4,645.6 v 3286.5 c 0,291.7 197.6,539.6 465.6,616.3 49.6,-405 220.4,-638.9 255.3,-838 38.6,-219.5 61.5,-1994 -493.1,-2778.7 -81.1,-114.7 -156.9,-208.6 -227.8,-286.1" style="fill:#fff0e5;fill-opacity:1;fill-rule:nonzero;stroke:none" id="path254"/>
      <path d="m 18689.8,7156 c -100.6,113.2 -161.9,262.1 -161.9,424.6 v 4.8 c 70.9,77.5 146.7,171.4 227.8,286.1 554.6,784.7 531.7,2559.2 493.1,2778.7 -34.9,199.1 -205.7,433 -255.3,838 55.8,16 114.6,24.5 175.3,24.5 h 57.2 c 333,-1245.5 313.7,-3145.4 -536.2,-4356.7" style="fill:#fbe9df;fill-opacity:1;fill-rule:nonzero;stroke:none" id="path256"/>
      <path d="m 20780.3,8478 h -1557.8 v 1557.8 h 1557.8 V 8478" style="fill:#163560;fill-opacity:1;fill-rule:nonzero;stroke:none" id="path258"/>
      <path d="m 21727.2,11100 -946.9,-1064.2 V 8478 l 946.9,-890.6 V 11100" style="fill:#163560;fill-opacity:1;fill-rule:nonzero;stroke:none" id="path260"/>
      <path d="m 18941.2,7810.3 c -35.6,0 -70.7,16.5 -93.3,47.5 -37.4,51.5 -26,123.5 25.5,160.9 l 3216.6,2336.9 c 51.5,37.4 123.5,26 160.9,-25.5 37.4,-51.4 26,-123.5 -25.5,-160.9 L 19008.8,7832.3 c -20.4,-14.8 -44.1,-22 -67.6,-22" style="fill:#f77d48;fill-opacity:1;fill-rule:nonzero;stroke:none" id="path262"/>
      <path d="m 22021.1,8822.7 c -5.6,0 -11.3,1.7 -16.1,5.3 -12.1,9 -14.6,26 -5.7,38.1 91,122.9 118.7,260 82.3,407.4 -27.3,110.8 -81.8,185.2 -82.3,185.9 -8.9,12.1 -6.4,29.1 5.7,38 12,9 29,6.4 38,-5.6 2.5,-3.4 61.5,-84 91.4,-205.2 27.8,-112.7 34.5,-282.8 -91.4,-452.9 -5.4,-7.2 -13.6,-11 -21.9,-11" style="fill:#163560;fill-opacity:1;fill-rule:nonzero;stroke:none" id="path264"/>
      <path d="m 22279.4,8632.5 c -5.6,0 -11.3,1.7 -16.2,5.3 -12,8.9 -14.6,26 -5.6,38 149,201.3 194.6,425.7 135.6,667.2 -44.4,181.7 -134.7,305.4 -135.6,306.7 -8.9,12 -6.4,29 5.7,38 12,8.9 29,6.4 38,-5.7 3.9,-5.3 96.9,-132.4 144.2,-324.1 43.9,-177.8 54.5,-446 -144.2,-714.4 -5.4,-7.2 -13.6,-11 -21.9,-11" style="fill:#163560;fill-opacity:1;fill-rule:nonzero;stroke:none" id="path266"/>
      <path d="m 22543.6,8478 c -5.7,0 -11.3,1.7 -16.2,5.3 -12.1,9 -14.6,26 -5.7,38 108.2,146 175.5,304 200.3,469.5 19.8,132.6 12.5,270.6 -21.7,410.1 -58.6,239 -177.4,401.6 -178.6,403.3 -8.9,12 -6.3,29 5.7,38 12.1,8.9 29.1,6.3 38,-5.7 5.1,-6.9 125.7,-171.6 187.2,-420.7 36.2,-146.6 44,-291.8 23.3,-431.7 -25.9,-174.9 -96.7,-341.5 -210.5,-495.1 -5.3,-7.2 -13.5,-11 -21.8,-11" style="fill:#163560;fill-opacity:1;fill-rule:nonzero;stroke:none" id="path268"/>
      <path d="M 27097.6,1942.4 H 2408.94 c -16.69,0 -30.35,13.7 -30.35,30.3 v 16.3 c 0,16.6 13.66,30.3 30.35,30.3 H 27097.6 c 16.7,0 30.3,-13.7 30.3,-30.3 v -16.3 c 0,-16.6 -13.6,-30.3 -30.3,-30.3" style="fill:#233862;fill-opacity:1;fill-rule:nonzero;stroke:none" id="path270"/>
    </g>
  </g>
</svg>